<mxfile host="app.diagrams.net" modified="2023-03-11T18:58:02.779Z" agent="5.0 (X11; Ubuntu)" etag="kSEpfoP2dahXrPs5wNzo" version="21.0.2" type="github">
  <diagram id="C5RBs43oDa-KdzZeNtuy" name="Page-1">
    <mxGraphModel dx="1434" dy="1846" grid="1" gridSize="10" guides="1" tooltips="1" connect="1" arrows="1" fold="1" page="1" pageScale="1" pageWidth="827" pageHeight="1169" math="0" shadow="0">
      <root>
        <mxCell id="WIyWlLk6GJQsqaUBKTNV-0" />
        <mxCell id="WIyWlLk6GJQsqaUBKTNV-1" parent="WIyWlLk6GJQsqaUBKTNV-0" />
        <mxCell id="yPXNnQwgqe4vPnGQmj5b-25" value="" style="edgeStyle=orthogonalEdgeStyle;rounded=0;orthogonalLoop=1;jettySize=auto;html=1;" edge="1" parent="WIyWlLk6GJQsqaUBKTNV-1" source="yPXNnQwgqe4vPnGQmj5b-1" target="yPXNnQwgqe4vPnGQmj5b-24">
          <mxGeometry relative="1" as="geometry" />
        </mxCell>
        <mxCell id="yPXNnQwgqe4vPnGQmj5b-1" value="Start" style="rounded=1;whiteSpace=wrap;html=1;strokeWidth=2;fillWeight=4;hachureGap=8;hachureAngle=45;fillColor=#f5f5f5;sketch=1;fontColor=#333333;strokeColor=#666666;" vertex="1" parent="WIyWlLk6GJQsqaUBKTNV-1">
          <mxGeometry x="50" y="425" width="110" height="100" as="geometry" />
        </mxCell>
        <mxCell id="yPXNnQwgqe4vPnGQmj5b-29" value="" style="edgeStyle=orthogonalEdgeStyle;rounded=0;orthogonalLoop=1;jettySize=auto;html=1;" edge="1" parent="WIyWlLk6GJQsqaUBKTNV-1" source="yPXNnQwgqe4vPnGQmj5b-24" target="yPXNnQwgqe4vPnGQmj5b-28">
          <mxGeometry relative="1" as="geometry" />
        </mxCell>
        <mxCell id="yPXNnQwgqe4vPnGQmj5b-31" value="" style="edgeStyle=orthogonalEdgeStyle;rounded=0;orthogonalLoop=1;jettySize=auto;html=1;" edge="1" parent="WIyWlLk6GJQsqaUBKTNV-1" source="yPXNnQwgqe4vPnGQmj5b-24">
          <mxGeometry relative="1" as="geometry">
            <mxPoint x="330.6500000000001" y="635" as="targetPoint" />
          </mxGeometry>
        </mxCell>
        <mxCell id="yPXNnQwgqe4vPnGQmj5b-24" value="&lt;div&gt;Play game /&lt;/div&gt;&lt;div&gt;Get a solution&lt;br&gt;&lt;/div&gt;" style="rhombus;whiteSpace=wrap;html=1;fillColor=#dae8fc;strokeColor=#6c8ebf;rounded=1;strokeWidth=2;fillWeight=4;hachureGap=8;hachureAngle=45;sketch=1;" vertex="1" parent="WIyWlLk6GJQsqaUBKTNV-1">
          <mxGeometry x="255" y="420" width="151.25" height="110" as="geometry" />
        </mxCell>
        <mxCell id="yPXNnQwgqe4vPnGQmj5b-45" value="" style="edgeStyle=orthogonalEdgeStyle;rounded=0;orthogonalLoop=1;jettySize=auto;html=1;" edge="1" parent="WIyWlLk6GJQsqaUBKTNV-1" source="yPXNnQwgqe4vPnGQmj5b-28">
          <mxGeometry relative="1" as="geometry">
            <mxPoint x="526.2550000000001" y="275" as="targetPoint" />
          </mxGeometry>
        </mxCell>
        <mxCell id="yPXNnQwgqe4vPnGQmj5b-28" value="Choose level" style="rounded=1;whiteSpace=wrap;html=1;fillColor=#dae8fc;strokeColor=#6c8ebf;strokeWidth=2;fillWeight=4;hachureGap=8;hachureAngle=45;sketch=1;" vertex="1" parent="WIyWlLk6GJQsqaUBKTNV-1">
          <mxGeometry x="252.81" y="235" width="155.63" height="80" as="geometry" />
        </mxCell>
        <mxCell id="yPXNnQwgqe4vPnGQmj5b-34" value="" style="edgeStyle=orthogonalEdgeStyle;rounded=0;orthogonalLoop=1;jettySize=auto;html=1;" edge="1" parent="WIyWlLk6GJQsqaUBKTNV-1" source="yPXNnQwgqe4vPnGQmj5b-32" target="yPXNnQwgqe4vPnGQmj5b-33">
          <mxGeometry relative="1" as="geometry" />
        </mxCell>
        <mxCell id="yPXNnQwgqe4vPnGQmj5b-32" value="Enter puzzle to be solved" style="rounded=1;whiteSpace=wrap;html=1;fillColor=#dae8fc;strokeColor=#6c8ebf;strokeWidth=2;fillWeight=4;hachureGap=8;hachureAngle=45;sketch=1;" vertex="1" parent="WIyWlLk6GJQsqaUBKTNV-1">
          <mxGeometry x="252.81" y="635" width="155.63" height="80" as="geometry" />
        </mxCell>
        <mxCell id="yPXNnQwgqe4vPnGQmj5b-43" style="edgeStyle=orthogonalEdgeStyle;rounded=0;orthogonalLoop=1;jettySize=auto;html=1;exitX=0.5;exitY=1;exitDx=0;exitDy=0;entryX=0.5;entryY=1;entryDx=0;entryDy=0;" edge="1" parent="WIyWlLk6GJQsqaUBKTNV-1" source="yPXNnQwgqe4vPnGQmj5b-33" target="yPXNnQwgqe4vPnGQmj5b-32">
          <mxGeometry relative="1" as="geometry">
            <Array as="points">
              <mxPoint x="601.25" y="805" />
              <mxPoint x="330.25" y="805" />
            </Array>
          </mxGeometry>
        </mxCell>
        <mxCell id="yPXNnQwgqe4vPnGQmj5b-61" value="" style="edgeStyle=orthogonalEdgeStyle;rounded=0;orthogonalLoop=1;jettySize=auto;html=1;" edge="1" parent="WIyWlLk6GJQsqaUBKTNV-1" source="yPXNnQwgqe4vPnGQmj5b-33">
          <mxGeometry relative="1" as="geometry">
            <mxPoint x="771.2600000000002" y="675" as="targetPoint" />
          </mxGeometry>
        </mxCell>
        <mxCell id="yPXNnQwgqe4vPnGQmj5b-33" value="Is the data being entered valid?" style="rhombus;whiteSpace=wrap;html=1;fillColor=#fff2cc;strokeColor=#d6b656;rounded=1;strokeWidth=2;fillWeight=4;hachureGap=8;hachureAngle=45;sketch=1;" vertex="1" parent="WIyWlLk6GJQsqaUBKTNV-1">
          <mxGeometry x="526.26" y="625" width="150" height="100" as="geometry" />
        </mxCell>
        <mxCell id="yPXNnQwgqe4vPnGQmj5b-38" value="" style="edgeStyle=orthogonalEdgeStyle;rounded=0;orthogonalLoop=1;jettySize=auto;html=1;" edge="1" parent="WIyWlLk6GJQsqaUBKTNV-1" source="yPXNnQwgqe4vPnGQmj5b-35">
          <mxGeometry relative="1" as="geometry">
            <mxPoint x="1049.6950000000002" y="275" as="targetPoint" />
          </mxGeometry>
        </mxCell>
        <mxCell id="yPXNnQwgqe4vPnGQmj5b-35" value="Enter row and column" style="rounded=1;whiteSpace=wrap;html=1;fillColor=#dae8fc;strokeColor=#6c8ebf;strokeWidth=2;fillWeight=4;hachureGap=8;hachureAngle=45;sketch=1;" vertex="1" parent="WIyWlLk6GJQsqaUBKTNV-1">
          <mxGeometry x="772.25" y="235" width="155.63" height="80" as="geometry" />
        </mxCell>
        <mxCell id="yPXNnQwgqe4vPnGQmj5b-41" value="" style="edgeStyle=orthogonalEdgeStyle;rounded=0;orthogonalLoop=1;jettySize=auto;html=1;" edge="1" parent="WIyWlLk6GJQsqaUBKTNV-1" source="yPXNnQwgqe4vPnGQmj5b-39" target="yPXNnQwgqe4vPnGQmj5b-40">
          <mxGeometry relative="1" as="geometry" />
        </mxCell>
        <mxCell id="yPXNnQwgqe4vPnGQmj5b-51" value="" style="edgeStyle=orthogonalEdgeStyle;rounded=0;orthogonalLoop=1;jettySize=auto;html=1;" edge="1" parent="WIyWlLk6GJQsqaUBKTNV-1" source="yPXNnQwgqe4vPnGQmj5b-39">
          <mxGeometry relative="1" as="geometry">
            <mxPoint x="1289.06" y="275" as="targetPoint" />
          </mxGeometry>
        </mxCell>
        <mxCell id="yPXNnQwgqe4vPnGQmj5b-39" value="Is the data being entered valid?" style="rhombus;whiteSpace=wrap;html=1;fillColor=#fff2cc;strokeColor=#d6b656;rounded=1;strokeWidth=2;fillWeight=4;hachureGap=8;hachureAngle=45;sketch=1;" vertex="1" parent="WIyWlLk6GJQsqaUBKTNV-1">
          <mxGeometry x="1044.06" y="225" width="150" height="100" as="geometry" />
        </mxCell>
        <mxCell id="yPXNnQwgqe4vPnGQmj5b-42" style="edgeStyle=orthogonalEdgeStyle;rounded=0;orthogonalLoop=1;jettySize=auto;html=1;exitX=0;exitY=0.5;exitDx=0;exitDy=0;entryX=0.5;entryY=0;entryDx=0;entryDy=0;" edge="1" parent="WIyWlLk6GJQsqaUBKTNV-1" source="yPXNnQwgqe4vPnGQmj5b-40" target="yPXNnQwgqe4vPnGQmj5b-35">
          <mxGeometry relative="1" as="geometry" />
        </mxCell>
        <mxCell id="yPXNnQwgqe4vPnGQmj5b-40" value="Print error message" style="whiteSpace=wrap;html=1;fillColor=#dae8fc;strokeColor=#6c8ebf;rounded=1;strokeWidth=2;fillWeight=4;hachureGap=8;hachureAngle=45;sketch=1;" vertex="1" parent="WIyWlLk6GJQsqaUBKTNV-1">
          <mxGeometry x="1059.06" y="65" width="120" height="60" as="geometry" />
        </mxCell>
        <mxCell id="yPXNnQwgqe4vPnGQmj5b-48" value="" style="edgeStyle=orthogonalEdgeStyle;rounded=0;orthogonalLoop=1;jettySize=auto;html=1;" edge="1" parent="WIyWlLk6GJQsqaUBKTNV-1" source="yPXNnQwgqe4vPnGQmj5b-46">
          <mxGeometry relative="1" as="geometry">
            <mxPoint x="771.2600000000002" y="275" as="targetPoint" />
          </mxGeometry>
        </mxCell>
        <mxCell id="yPXNnQwgqe4vPnGQmj5b-49" style="edgeStyle=orthogonalEdgeStyle;rounded=0;orthogonalLoop=1;jettySize=auto;html=1;exitX=0.5;exitY=0;exitDx=0;exitDy=0;entryX=0.5;entryY=0;entryDx=0;entryDy=0;" edge="1" parent="WIyWlLk6GJQsqaUBKTNV-1" source="yPXNnQwgqe4vPnGQmj5b-46" target="yPXNnQwgqe4vPnGQmj5b-28">
          <mxGeometry relative="1" as="geometry">
            <Array as="points">
              <mxPoint x="601.25" y="115" />
              <mxPoint x="330.25" y="115" />
            </Array>
          </mxGeometry>
        </mxCell>
        <mxCell id="yPXNnQwgqe4vPnGQmj5b-46" value="Is the data being entered valid?" style="rhombus;whiteSpace=wrap;html=1;fillColor=#fff2cc;strokeColor=#d6b656;rounded=1;strokeWidth=2;fillWeight=4;hachureGap=8;hachureAngle=45;sketch=1;" vertex="1" parent="WIyWlLk6GJQsqaUBKTNV-1">
          <mxGeometry x="526.26" y="225" width="150" height="100" as="geometry" />
        </mxCell>
        <mxCell id="yPXNnQwgqe4vPnGQmj5b-54" value="" style="edgeStyle=orthogonalEdgeStyle;rounded=0;orthogonalLoop=1;jettySize=auto;html=1;" edge="1" parent="WIyWlLk6GJQsqaUBKTNV-1" source="yPXNnQwgqe4vPnGQmj5b-52">
          <mxGeometry relative="1" as="geometry">
            <mxPoint x="1524.88" y="275" as="targetPoint" />
          </mxGeometry>
        </mxCell>
        <mxCell id="yPXNnQwgqe4vPnGQmj5b-52" value="Put number in to the cell indicated" style="rounded=1;whiteSpace=wrap;html=1;fillColor=#dae8fc;strokeColor=#6c8ebf;strokeWidth=2;fillWeight=4;hachureGap=8;hachureAngle=45;sketch=1;" vertex="1" parent="WIyWlLk6GJQsqaUBKTNV-1">
          <mxGeometry x="1289.25" y="235" width="155.63" height="80" as="geometry" />
        </mxCell>
        <mxCell id="yPXNnQwgqe4vPnGQmj5b-56" style="edgeStyle=orthogonalEdgeStyle;rounded=0;orthogonalLoop=1;jettySize=auto;html=1;exitX=0.5;exitY=1;exitDx=0;exitDy=0;entryX=0.45;entryY=1.013;entryDx=0;entryDy=0;entryPerimeter=0;" edge="1" parent="WIyWlLk6GJQsqaUBKTNV-1" source="yPXNnQwgqe4vPnGQmj5b-55" target="yPXNnQwgqe4vPnGQmj5b-35">
          <mxGeometry relative="1" as="geometry">
            <Array as="points">
              <mxPoint x="1595.25" y="395" />
              <mxPoint x="842.25" y="395" />
            </Array>
          </mxGeometry>
        </mxCell>
        <mxCell id="yPXNnQwgqe4vPnGQmj5b-58" value="" style="edgeStyle=orthogonalEdgeStyle;rounded=0;orthogonalLoop=1;jettySize=auto;html=1;" edge="1" parent="WIyWlLk6GJQsqaUBKTNV-1" source="yPXNnQwgqe4vPnGQmj5b-55" target="yPXNnQwgqe4vPnGQmj5b-57">
          <mxGeometry relative="1" as="geometry" />
        </mxCell>
        <mxCell id="yPXNnQwgqe4vPnGQmj5b-55" value="Add another guess" style="rhombus;whiteSpace=wrap;html=1;fillColor=#d5e8d4;strokeColor=#82b366;rounded=1;strokeWidth=2;fillWeight=4;hachureGap=8;hachureAngle=45;sketch=1;" vertex="1" parent="WIyWlLk6GJQsqaUBKTNV-1">
          <mxGeometry x="1520.25" y="225" width="150" height="100" as="geometry" />
        </mxCell>
        <mxCell id="yPXNnQwgqe4vPnGQmj5b-59" style="edgeStyle=orthogonalEdgeStyle;rounded=0;orthogonalLoop=1;jettySize=auto;html=1;exitX=0.5;exitY=1;exitDx=0;exitDy=0;entryX=1;entryY=0;entryDx=0;entryDy=0;" edge="1" parent="WIyWlLk6GJQsqaUBKTNV-1" source="yPXNnQwgqe4vPnGQmj5b-57" target="yPXNnQwgqe4vPnGQmj5b-32">
          <mxGeometry relative="1" as="geometry">
            <Array as="points">
              <mxPoint x="1825.25" y="535" />
              <mxPoint x="408.25" y="535" />
            </Array>
          </mxGeometry>
        </mxCell>
        <mxCell id="yPXNnQwgqe4vPnGQmj5b-63" style="edgeStyle=orthogonalEdgeStyle;rounded=0;orthogonalLoop=1;jettySize=auto;html=1;exitX=1;exitY=0.5;exitDx=0;exitDy=0;entryX=0.567;entryY=-0.044;entryDx=0;entryDy=0;entryPerimeter=0;" edge="1" parent="WIyWlLk6GJQsqaUBKTNV-1" source="yPXNnQwgqe4vPnGQmj5b-57" target="yPXNnQwgqe4vPnGQmj5b-62">
          <mxGeometry relative="1" as="geometry">
            <Array as="points">
              <mxPoint x="1920.25" y="275" />
              <mxPoint x="1920.25" y="575" />
              <mxPoint x="840.25" y="575" />
            </Array>
          </mxGeometry>
        </mxCell>
        <mxCell id="yPXNnQwgqe4vPnGQmj5b-65" value="" style="edgeStyle=orthogonalEdgeStyle;rounded=0;orthogonalLoop=1;jettySize=auto;html=1;" edge="1" parent="WIyWlLk6GJQsqaUBKTNV-1" source="yPXNnQwgqe4vPnGQmj5b-57">
          <mxGeometry relative="1" as="geometry">
            <mxPoint x="1825.25" y="145" as="targetPoint" />
          </mxGeometry>
        </mxCell>
        <mxCell id="yPXNnQwgqe4vPnGQmj5b-57" value="Finish game and check / Exit" style="rhombus;whiteSpace=wrap;html=1;fillColor=#d5e8d4;strokeColor=#82b366;rounded=1;strokeWidth=2;fillWeight=4;hachureGap=8;hachureAngle=45;sketch=1;" vertex="1" parent="WIyWlLk6GJQsqaUBKTNV-1">
          <mxGeometry x="1750.25" y="225" width="150" height="100" as="geometry" />
        </mxCell>
        <mxCell id="yPXNnQwgqe4vPnGQmj5b-62" value="End program" style="whiteSpace=wrap;html=1;fillColor=#f5f5f5;strokeColor=#666666;rounded=1;strokeWidth=2;fillWeight=4;hachureGap=8;hachureAngle=45;sketch=1;fontColor=#333333;" vertex="1" parent="WIyWlLk6GJQsqaUBKTNV-1">
          <mxGeometry x="772.25" y="630" width="120" height="90" as="geometry" />
        </mxCell>
        <mxCell id="yPXNnQwgqe4vPnGQmj5b-67" style="edgeStyle=orthogonalEdgeStyle;rounded=0;orthogonalLoop=1;jettySize=auto;html=1;entryX=1;entryY=0.5;entryDx=0;entryDy=0;" edge="1" parent="WIyWlLk6GJQsqaUBKTNV-1" source="yPXNnQwgqe4vPnGQmj5b-66" target="yPXNnQwgqe4vPnGQmj5b-62">
          <mxGeometry relative="1" as="geometry">
            <Array as="points">
              <mxPoint x="1966.25" y="95" />
              <mxPoint x="1966.25" y="675" />
            </Array>
          </mxGeometry>
        </mxCell>
        <mxCell id="yPXNnQwgqe4vPnGQmj5b-66" value="Save game" style="whiteSpace=wrap;html=1;fillColor=#b0e3e6;strokeColor=#0e8088;rounded=1;strokeWidth=2;fillWeight=4;hachureGap=8;hachureAngle=45;sketch=1;" vertex="1" parent="WIyWlLk6GJQsqaUBKTNV-1">
          <mxGeometry x="1765.25" y="50" width="120" height="90" as="geometry" />
        </mxCell>
      </root>
    </mxGraphModel>
  </diagram>
</mxfile>
